# xmcd
#
# Track frame offsets:
#	150
#	18287
#	36479
#	56634
#	70958
#	90760
#	106994
#	122756
#	141367
#	163665
#	178185
#	197693
#
# Disc length: 2860 seconds
# Revision: 0
# Processed by: cddbd v1.5.2PL0 Copyright (c) Steve Scherf et al.
# Submitted via: cdrLabel 7.1
#
DISCID=a50b2a0c
DTITLE=Paul Thorn                 -  A Long Way From Tupelo
DYEAR=1900
DGENRE=
TTITLE0=Lucky Seven Ranch
TTITLE1=Everybody Wishes
TTITLE2=A Woman To Love
TTITLE3=I'm Still Here
TTITLE4=Long Way From Tupelo
TTITLE5=Crutches
TTITLE6=It Don't Get Any Better Than This
TTITLE7=All About People
TTITLE8=Burning Blue
TTITLE9=What Have You Done To Lift Somebody Up
TTITLE10=Starvin' For Your Kisses
TTITLE11=When The Long Road Ends
EXTD=
EXTT0=
EXTT1=
EXTT2=
EXTT3=
EXTT4=
EXTT5=
EXTT6=
EXTT7=
EXTT8=
EXTT9=
EXTT10=
EXTT11=
PLAYORDER=
